<svg width="71" height="70" viewBox="0 0 71 70" fill="none" xmlns="http://www.w3.org/2000/svg">
<path d="M40.9805 20.0371L45.3443 24.3443L52.938 16.8491C55.6364 14.1856 60.0262 14.1856 62.7246 16.8491C54.2978 8.53246 40.9805 20.0361 40.9805 20.0361V20.0371Z" fill="#0F3363"/>
<path d="M62.7256 16.8498C65.424 19.5133 65.424 23.8471 62.7256 26.5096L40.9814 47.9727L45.3453 52.28L67.0894 30.8178C72.1942 25.7792 72.1942 17.5811 67.0894 12.5426C61.9847 7.50403 53.6789 7.50403 48.5742 12.5426L40.9805 20.0378C40.9805 20.0378 54.2987 8.53318 62.7246 16.8508L62.7256 16.8498Z" fill="#0F3363"/>
<path d="M67.0915 47.9454L59.4978 40.4512C59.4978 40.4512 70.6288 54.1137 62.7267 61.9134C60.0282 64.5768 55.6385 64.5768 52.94 61.9134L31.1959 40.4512L26.832 44.7584L48.5762 66.2206C53.6809 71.2592 61.9867 71.2592 67.0915 66.2206C72.1962 61.1821 72.1962 52.984 67.0915 47.9454Z" fill="#0F3363"/>
<path d="M59.4966 40.4512L55.1328 44.7584L62.7265 52.2536C65.4249 54.9171 65.4249 59.2499 62.7265 61.9134C70.6287 54.1137 59.4976 40.4512 59.4976 40.4512H59.4966Z" fill="#0F3363"/>
<path d="M17.0717 16.8486C9.21663 24.6018 20.3006 38.3108 20.3006 38.3108L24.6654 34.0026L17.0717 26.5074C14.3733 23.844 14.3733 19.5111 17.0717 16.8477V16.8486Z" fill="#0F3363"/>
<path d="M17.0722 16.8488C19.7707 14.1854 24.1605 14.1854 26.8589 16.8488L48.6031 38.311L52.9678 34.0028L31.2227 12.5406C26.118 7.50208 17.8122 7.50208 12.7075 12.5406C7.60272 17.5792 7.60272 25.7773 12.7075 30.8158L20.3012 38.311C20.3012 38.311 9.21717 24.6011 17.0722 16.8488Z" fill="#0F3363"/>
<path d="M5.28541 10.4337C8.20446 10.4337 10.5708 8.09807 10.5708 5.21687C10.5708 2.33567 8.20446 0 5.28541 0C2.36636 0 0 2.33567 0 5.21687C0 8.09807 2.36636 10.4337 5.28541 10.4337Z" fill="#0F3363"/>
</svg>
